<?xml version="1.0" encoding="UTF-8"?>
<svg version="1.1" xmlns="http://www.w3.org/2000/svg" width="500" height="500">
<path d="M0 0 C1.093125 0.1134375 2.18625 0.226875 3.3125 0.34375 C19.03324216 2.38744648 33.21609712 7.28179756 47 15 C47.969375 15.54011719 48.93875 16.08023438 49.9375 16.63671875 C55.15208787 19.66531323 60.56283987 22.88509172 65 27 C65 27.66 65 28.32 65 29 C65.57105469 29.24234375 66.14210938 29.4846875 66.73046875 29.734375 C76.11094201 34.96548229 80.83549428 45.6244677 85 55 C85.40520874 55.90758057 85.40520874 55.90758057 85.81860352 56.83349609 C92.70198387 72.50171994 91.59783043 91.08224293 86 107 C81.58296713 117.28672627 81.58296713 117.28672627 78.0234375 118.890625 C75.0602635 119.05079657 73.08066319 117.55779158 70.53515625 116.1875 C62.66352715 112.50032705 53.68980004 110.31599273 45 110 C43.13601563 109.92265625 43.13601563 109.92265625 41.234375 109.84375 C26.52942033 109.43281609 13.3762544 111.58776994 0 118 C-0.89589844 118.40347656 -1.79179687 118.80695313 -2.71484375 119.22265625 C-7.66927927 121.53969301 -11.66180772 124.08110016 -15.625 127.86328125 C-17 129 -17 129 -19 129 C-19 129.66 -19 130.32 -19 131 C-19.66 131 -20.32 131 -21 131 C-21.27070313 131.57492187 -21.54140625 132.14984375 -21.8203125 132.7421875 C-23.01465189 135.02804236 -24.37989305 137.02565294 -25.875 139.125 C-29.77216056 144.91833404 -32.78123707 151.06927846 -33.625 158.0625 C-33.74875 159.031875 -33.8725 160.00125 -34 161 C-37.11476742 162.55738371 -39.57057433 161.48588513 -42.9375 160.8125 C-44.18402344 160.57144531 -45.43054688 160.33039063 -46.71484375 160.08203125 C-49.98629475 159.34750523 -52.97550825 158.25187829 -56.08984375 157.015625 C-62.79870522 154.51069858 -69.54030088 153.737793 -76.625 152.9375 C-77.98216302 152.77425677 -79.33917693 152.60976942 -80.69604492 152.4440918 C-84.12859055 152.02799106 -87.56265897 151.62669671 -90.99761963 151.2310791 C-95.33263506 150.73080878 -99.66612368 150.21751535 -103.99951172 149.70336914 C-106.16851396 149.44746843 -108.3381008 149.19646373 -110.50830078 148.95092773 C-111.95245361 148.78379272 -111.95245361 148.78379272 -113.42578125 148.61328125 C-114.26536377 148.51829346 -115.10494629 148.42330566 -115.9699707 148.32543945 C-118 148 -118 148 -120 147 C-120 146.34 -120 145.68 -120 145 C-119.34 145 -118.68 145 -118 145 C-118 144.34 -118 143.68 -118 143 C-116.50485526 141.71464829 -114.95179881 140.49626194 -113.375 139.3125 C-108.95128323 135.87532234 -105.47020006 132.3834106 -102 128 C-104.34722815 123.77498934 -106.83570775 119.72118117 -109.5 115.6875 C-118.40134644 101.73506832 -121.48706151 85.31040547 -118.3125 68.9921875 C-115.29877514 56.76148746 -109.66610456 45.03706473 -102 35 C-101.34 35 -100.68 35 -100 35 C-99.79890625 34.44828125 -99.5978125 33.8965625 -99.390625 33.328125 C-97.44633053 30.07307022 -94.711015 28.03090062 -91.75 25.75 C-91.12593262 25.26692383 -90.50186523 24.78384766 -89.85888672 24.28613281 C-63.77230285 4.51979836 -32.39365503 -3.396109 0 0 Z " fill="#5B7080" transform="translate(258,127)"/>
<path d="M0 0 C10.46507201 8.35314483 19.86118015 18.31962395 22 32 C23.10777394 49.25570944 18.6056256 59.75295961 7.515625 72.56640625 C6 74 6 74 4 74 C4 74.66 4 75.32 4 76 C3.35256836 76.41741455 2.70513672 76.8348291 2.03808594 77.26489258 C-0.25107689 78.85395007 -0.25107689 78.85395007 -0.54589844 81.63549805 C-0.5668457 82.66715088 -0.58779297 83.69880371 -0.609375 84.76171875 C-0.64160156 85.87998047 -0.67382812 86.99824219 -0.70703125 88.15039062 C-0.72121094 89.31763672 -0.73539062 90.48488281 -0.75 91.6875 C-0.79447266 93.45577148 -0.79447266 93.45577148 -0.83984375 95.25976562 C-0.91061656 98.17324632 -0.96327725 101.08592336 -1 104 C-4 104 -4 104 -5.53515625 102.50390625 C-6.29119141 101.54291016 -6.29119141 101.54291016 -7.0625 100.5625 C-9.1671333 97.84124807 -9.1671333 97.84124807 -12 96 C-12 95.34 -12 94.68 -12 94 C-12.556875 93.7525 -13.11375 93.505 -13.6875 93.25 C-16 92 -16 92 -18 89.6875 C-20.75370573 87.71382807 -20.75370573 87.71382807 -23.14453125 88.41015625 C-24.02496094 88.68730469 -24.90539062 88.96445312 -25.8125 89.25 C-45.22929519 94.93823295 -67.22390681 90.88804659 -85 82 C-97.77776652 74.95161911 -107.29548031 64.0005485 -111.4765625 49.95703125 C-114.45535563 38.81990173 -112.55949708 27.86087971 -107.04296875 17.7578125 C-106.69878906 17.17773438 -106.35460937 16.59765625 -106 16 C-105.64550781 15.39929688 -105.29101562 14.79859375 -104.92578125 14.1796875 C-103.875 12.5 -103.875 12.5 -102 10 C-101.34 10 -100.68 10 -100 10 C-100 9.34 -100 8.68 -100 8 C-99.34 8 -98.68 8 -98 8 C-98 7.34 -98 6.68 -98 6 C-97.34 6 -96.68 6 -96 6 C-96 5.34 -96 4.68 -96 4 C-95.34 4 -94.68 4 -94 4 C-94 3.34 -94 2.68 -94 2 C-69.12866705 -17.53145296 -25.72995185 -18.79623106 0 0 Z " fill="#98D5C9" transform="translate(340,253)"/>
<path d="M0 0 C44.88 0 89.76 0 136 0 C136 2.31 136 4.62 136 7 C91.12 7 46.24 7 0 7 C0 4.69 0 2.38 0 0 Z " fill="#65B9AA" transform="translate(174,200)"/>
<path d="M0 0 C44.55 0 89.1 0 135 0 C135 2.31 135 4.62 135 7 C90.45 7 45.9 7 0 7 C0 4.69 0 2.38 0 0 Z " fill="#64BAAB" transform="translate(175,173)"/>
<path d="M0 0 C23.76 0 47.52 0 72 0 C72 2.64 72 5.28 72 8 C48.24 8 24.48 8 0 8 C0 5.36 0 2.72 0 0 Z " fill="#6CB1AA" transform="translate(174,227)"/>
<path d="M0 0 C43.23 0 86.46 0 131 0 C131 1.32 131 2.64 131 4 C87.77 3.67 44.54 3.34 0 3 C0 2.01 0 1.02 0 0 Z " fill="#5CBFAB" transform="translate(177,174)"/>
<path d="M0 0 C22.11 0 44.22 0 67 0 C67 1.32 67 2.64 67 4 C44.56 4 22.12 4 -1 4 C-0.67 2.68 -0.34 1.36 0 0 Z " fill="#5CC0AC" transform="translate(177,229)"/>
<path d="M0 0 C-0.33 0.99 -0.66 1.98 -1 3 C-43.24 3 -85.48 3 -129 3 C-129 2.34 -129 1.68 -129 1 C-112.62345334 0.86947154 -96.2469056 0.73907891 -79.87035656 0.60884857 C-72.26667925 0.54837909 -64.6630023 0.48786493 -57.05932617 0.42724609 C-50.4330241 0.3744193 -43.80672137 0.32167582 -37.18041784 0.26903296 C-33.67090355 0.24114859 -30.16138961 0.21322212 -26.65187645 0.18519592 C-22.7369128 0.15393345 -18.82194768 0.12285696 -14.90698242 0.09179688 C-13.7395752 0.08244614 -12.57216797 0.0730954 -11.36938477 0.0634613 C-10.30507736 0.05504715 -9.24076996 0.046633 -8.14421082 0.03796387 C-7.21780887 0.03058952 -6.29140692 0.02321518 -5.33693218 0.01561737 C-3.5579869 0.00372894 -1.77898501 0 0 0 Z " fill="#57C1AA" transform="translate(306,202)"/>
<path d="M0 0 C44.55 0 89.1 0 135 0 C135 2.31 135 4.62 135 7 C134.01 6.67 133.02 6.34 132 6 C132.33 4.35 132.66 2.7 133 1 C89.77 1 46.54 1 2 1 C2 2.65 2 4.3 2 6 C1.34 6 0.68 6 0 6 C0 4.02 0 2.04 0 0 Z " fill="#70BBB1" transform="translate(175,173)"/>
<path d="M0 0 C0.33 0 0.66 0 1 0 C1 1.65 1 3.3 1 5 C44.23 4.67 87.46 4.34 132 4 C132 2.68 132 1.36 132 0 C132.99 0 133.98 0 135 0 C135 1.98 135 3.96 135 6 C90.45 6 45.9 6 0 6 C0 4.02 0 2.04 0 0 Z " fill="#79B9B0" transform="translate(175,201)"/>
<path d="M0 0 C0.99 0.66 1.98 1.32 3 2 C2.38511719 2.70962891 2.38511719 2.70962891 1.7578125 3.43359375 C-6.31572927 13.34203138 -5.25183992 23.81374621 -5 36 C-4.34 36 -3.68 36 -3 36 C-2.375 37.875 -2.375 37.875 -2 40 C-2.66 40.66 -3.32 41.32 -4 42 C-8.36022948 29.41292244 -9.24989718 19.13679179 -3.9453125 6.484375 C-1.47828014 1.47828014 -1.47828014 1.47828014 0 0 Z " fill="#C1E0D9" transform="translate(235,268)"/>
<path d="M0 0 C0.33 0.99 0.66 1.98 1 3 C0.01 3.33 -0.98 3.66 -2 4 C-2.12375 4.763125 -2.2475 5.52625 -2.375 6.3125 C-3 9 -3 9 -5 12 C-5.66 12 -6.32 12 -7 12 C-7.061875 12.70125 -7.12375 13.4025 -7.1875 14.125 C-8.29201202 18.0332733 -10.28230992 20.00357248 -13 23 C-13 18.2999373 -10.35077657 14.97332345 -8 11 C-7.54625 10.21882812 -7.0925 9.43765625 -6.625 8.6328125 C-4.11829521 4.44005033 -4.11829521 4.44005033 -3 3 C-2.34 3 -1.68 3 -1 3 C-0.67 2.01 -0.34 1.02 0 0 Z " fill="#8F9CA4" transform="translate(159,159)"/>
<path d="M0 0 C0 0.99 0 1.98 0 3 C-0.99 3.33 -1.98 3.66 -3 4 C-2.67 4.99 -2.34 5.98 -2 7 C0.50447516 8.21869929 0.50447516 8.21869929 3 9 C3 9.33 3 9.66 3 10 C1.37509046 10.02698189 -0.24994633 10.04638757 -1.875 10.0625 C-3.23238281 10.07990234 -3.23238281 10.07990234 -4.6171875 10.09765625 C-7 10 -7 10 -9 9 C-9 8.34 -9 7.68 -9 7 C-8.34 7 -7.68 7 -7 7 C-7 6.34 -7 5.68 -7 5 C-5.46875 3.7109375 -5.46875 3.7109375 -3.5 2.375 C-2.8503125 1.92898438 -2.200625 1.48296875 -1.53125 1.0234375 C-0.77328125 0.51683594 -0.77328125 0.51683594 0 0 Z " fill="#8F98A1" transform="translate(147,265)"/>
<path d="M0 0 C0.33 0.66 0.66 1.32 1 2 C1.99 2.33 2.98 2.66 4 3 C4 3.66 4 4.32 4 5 C-1.94 4.67 -7.88 4.34 -14 4 C-10.85426323 1.90284215 -8.98543749 1.47995441 -5.3125 0.875 C-3.82169922 0.62363281 -3.82169922 0.62363281 -2.30078125 0.3671875 C-1.54152344 0.24601562 -0.78226563 0.12484375 0 0 Z " fill="#6E7D89" transform="translate(179,274)"/>
<path d="M0 0 C8.95788336 0.42516959 17.32210784 1.74175965 26 4 C26 4.33 26 4.66 26 5 C16.8731341 5.78982493 8.70030405 3.4179505 0 1 C0 0.67 0 0.34 0 0 Z " fill="#BFE1DA" transform="translate(267,339)"/>
<path d="M0 0 C0.33 0 0.66 0 1 0 C1 8.25 1 16.5 1 25 C0.01 25 -0.98 25 -2 25 C-4.1875 22 -4.1875 22 -6 19 C-4.35 19 -2.7 19 -1 19 C-0.67 12.73 -0.34 6.46 0 0 Z " fill="#C1E1DB" transform="translate(338,332)"/>
<path d="M0 0 C0.66 0 1.32 0 2 0 C2.33 0.99 2.66 1.98 3 3 C1.37660195 4.70884005 -0.29319053 6.37446717 -2 8 C-2.66 8 -3.32 8 -4 8 C-4 8.66 -4 9.32 -4 10 C-5.32 10.33 -6.64 10.66 -8 11 C-7.34 9.35 -6.68 7.7 -6 6 C-5.34 6 -4.68 6 -4 6 C-4 5.34 -4 4.68 -4 4 C-3.34 4 -2.68 4 -2 4 C-2 3.34 -2 2.68 -2 2 C-1.34 2 -0.68 2 0 2 C0 1.34 0 0.68 0 0 Z " fill="#B3D9D2" transform="translate(244,257)"/>
<path d="M0 0 C5.26170694 1.41167747 8.72171358 3.74850232 13 7 C11 8 11 8 9.0546875 7.44140625 C8.33539063 7.15136719 7.61609375 6.86132812 6.875 6.5625 C6.15054687 6.27503906 5.42609375 5.98757812 4.6796875 5.69140625 C4.12539063 5.46324219 3.57109375 5.23507813 3 5 C3 4.34 3 3.68 3 3 C2.01 2.67 1.02 2.34 0 2 C0 1.34 0 0.68 0 0 Z M2 6 C4 7 4 7 4 7 Z " fill="#B1DCD2" transform="translate(328,247)"/>
<path d="M0 0 C0.66 0 1.32 0 2 0 C0.69157927 5.70947228 -1.48584882 10.28589476 -5 15 C-5.33 15 -5.66 15 -6 15 C-6 13.35 -6 11.7 -6 10 C-5.34 10 -4.68 10 -4 10 C-3.71125 8.906875 -3.4225 7.81375 -3.125 6.6875 C-2 3 -2 3 0 0 Z " fill="#BEE0DB" transform="translate(358,304)"/>
<path d="M0 0 C2.97 0.33 5.94 0.66 9 1 C9 1.66 9 2.32 9 3 C9.66 3.33 10.32 3.66 11 4 C7.93109813 5.53445094 5.29905734 4.54984289 2 4 C2 3.34 2 2.68 2 2 C1.34 2 0.68 2 0 2 C0 1.34 0 0.68 0 0 Z " fill="#7B8791" transform="translate(267,129)"/>
<path d="M0 0 C-3.13498292 1.85776765 -5.37471432 2.20140476 -9 2 C-9.33 2.66 -9.66 3.32 -10 4 C-12.88511836 4.93571406 -14.36622435 5.2877684 -17.16796875 4.015625 C-17.77253906 3.68046875 -18.37710937 3.3453125 -19 3 C-16.77228658 2.49356447 -14.54275924 1.9951038 -12.3125 1.5 C-10.45044922 1.08234375 -10.45044922 1.08234375 -8.55078125 0.65625 C-5.57601782 0.10645874 -3.00631398 -0.13795705 0 0 Z " fill="#C1E3DC" transform="translate(287,241)"/>
<path d="M0 0 C0 0.33 0 0.66 0 1 C-2.31 1 -4.62 1 -7 1 C-7 1.66 -7 2.32 -7 3 C-10.01490557 4.00496852 -12.04181692 4.10335303 -15.1875 4.0625 C-16.53908203 4.04896484 -16.53908203 4.04896484 -17.91796875 4.03515625 C-18.60503906 4.02355469 -19.29210937 4.01195312 -20 4 C-15.23177517 -0.76822483 -6.37720529 -0.23619279 0 0 Z " fill="#9CA5AF" transform="translate(229,128)"/>
<path d="M0 0 C0.99 0.33 1.98 0.66 3 1 C1.68 3.31 0.36 5.62 -1 8 C-2.65 7.67 -4.3 7.34 -6 7 C-5.195625 6.21625 -4.39125 5.4325 -3.5625 4.625 C-1.01309583 2.28017144 -1.01309583 2.28017144 0 0 Z " fill="#89989E" transform="translate(338,238)"/>
<path d="M0 0 C1.98 0 3.96 0 6 0 C6 1.32 6 2.64 6 4 C6.66 4 7.32 4 8 4 C7.67 5.32 7.34 6.64 7 8 C5.83035398 6.8572081 4.66435444 5.71068285 3.5 4.5625 C2.8503125 3.92441406 2.200625 3.28632813 1.53125 2.62890625 C0 1 0 1 0 0 Z " fill="#B8DDD7" transform="translate(240,322)"/>
<path d="M0 0 C0 1.98 0 3.96 0 6 C-0.99 6.495 -0.99 6.495 -2 7 C-2.33 6.34 -2.66 5.68 -3 5 C-3.99 5 -4.98 5 -6 5 C-5.6875 3.0625 -5.6875 3.0625 -5 1 C-2 0 -2 0 0 0 Z " fill="#72808E" transform="translate(344,228)"/>
<path d="M0 0 C-1.32 1.32 -2.64 2.64 -4 4 C-5.32 3.34 -6.64 2.68 -8 2 C-8.33 2.66 -8.66 3.32 -9 4 C-9.66 3.34 -10.32 2.68 -11 2 C-3.57142857 -1.57142857 -3.57142857 -1.57142857 0 0 Z " fill="#83969F" transform="translate(203,135)"/>
<path d="M0 0 C1.32 0 2.64 0 4 0 C4.268125 0.639375 4.53625 1.27875 4.8125 1.9375 C5.88667752 4.33131686 5.88667752 4.33131686 9 5 C9.6875 7.0625 9.6875 7.0625 10 9 C9.34 9 8.68 9 8 9 C8 8.34 8 7.68 8 7 C7.4225 6.773125 6.845 6.54625 6.25 6.3125 C3.4336339 4.66961977 1.91922886 2.60466773 0 0 Z " fill="#C2E3DB" transform="translate(320,340)"/>
<path d="M0 0 C1.98 0 3.96 0 6 0 C3.42215154 2.64752004 1.08351902 4.94432065 -2 7 C-1.42415568 4.61435923 -0.77772405 2.33317216 0 0 Z " fill="#88959E" transform="translate(242,249)"/>
<path d="M0 0 C0.99 0.99 1.98 1.98 3 3 C0.59563974 6.60654039 -0.94679607 6.85452932 -5 8 C-3.62845496 5.04590299 -2.01136276 2.55991624 0 0 Z " fill="#677784" transform="translate(149,177)"/>
<path d="M0 0 C0 0.66 0 1.32 0 2 C-0.99 2.33 -1.98 2.66 -3 3 C-3.99 4.485 -3.99 4.485 -5 6 C-8.125 6.1875 -8.125 6.1875 -11 6 C-8.24029211 2.78034079 -4.3526723 0 0 0 Z " fill="#8D979F" transform="translate(190,139)"/>
<path d="M0 0 C0.66 0 1.32 0 2 0 C1.49477778 4.37859255 -1.17827222 6.81651224 -4 10 C-4 5.75354935 -2.18249194 3.61475228 0 0 Z " fill="#88929B" transform="translate(150,172)"/>
<path d="M0 0 C2.6895528 2.6895528 3.69331154 5.45327417 5 9 C4.67 9.99 4.34 10.98 4 12 C3.71125 11.195625 3.4225 10.39125 3.125 9.5625 C2.26737432 6.8673532 2.26737432 6.8673532 0 6 C0 5.34 0 4.68 0 4 C-0.66 3.67 -1.32 3.34 -2 3 C-1.34 2.01 -0.68 1.02 0 0 Z " fill="#9BA3AE" transform="translate(340,177)"/>
<path d="M0 0 C0 0.66 0 1.32 0 2 C-0.639375 2.28875 -1.27875 2.5775 -1.9375 2.875 C-4.15206079 3.82823451 -4.15206079 3.82823451 -5 6 C-7.5625 6.625 -7.5625 6.625 -10 7 C-10 6.34 -10 5.68 -10 5 C-8.3203125 3.7109375 -8.3203125 3.7109375 -6.125 2.375 C-5.40570313 1.92898437 -4.68640625 1.48296875 -3.9453125 1.0234375 C-2 0 -2 0 0 0 Z " fill="#C2DDD7" transform="translate(256,250)"/>
<path d="M0 0 C0.66 0.33 1.32 0.66 2 1 C0.35 2.98 -1.3 4.96 -3 7 C-4.32 6.67 -5.64 6.34 -7 6 C-4.69 4.02 -2.38 2.04 0 0 Z " fill="#8997A3" transform="translate(171,149)"/>
<path d="M0 0 C0.99 0.33 1.98 0.66 3 1 C3.33 2.65 3.66 4.3 4 6 C4.66 6 5.32 6 6 6 C5.67 7.32 5.34 8.64 5 10 C4.16121545 8.71186658 3.32913217 7.41936744 2.5 6.125 C2.0359375 5.40570313 1.571875 4.68640625 1.09375 3.9453125 C0 2 0 2 0 0 Z " fill="#BFDFDA" transform="translate(232,310)"/>
<path d="M0 0 C0.33 0 0.66 0 1 0 C1 1.65 1 3.3 1 5 C-2.06890187 6.53445094 -4.70094266 5.54984289 -8 5 C-8 4.67 -8 4.34 -8 4 C-6.35 4 -4.7 4 -3 4 C-2.67 3.34 -2.34 2.68 -2 2 C-1.34 1.34 -0.68 0.68 0 0 Z " fill="#99A5AE" transform="translate(223,283)"/>
<path d="M0 0 C0.66 0.66 1.32 1.32 2 2 C0.35 4.64 -1.3 7.28 -3 10 C-3.66 8.68 -4.32 7.36 -5 6 C-4.01 6 -3.02 6 -2 6 C-2 4.68 -2 3.36 -2 2 C-1.34 2 -0.68 2 0 2 C0 1.34 0 0.68 0 0 Z " fill="#9DA5AE" transform="translate(233,260)"/>
<path d="M0 0 C2.31 1.98 4.62 3.96 7 6 C5.68 6.33 4.36 6.66 3 7 C0 2.25 0 2.25 0 0 Z " fill="#B6D9D3" transform="translate(344,257)"/>
<path d="M0 0 C0.99 1.32 1.98 2.64 3 4 C0.36 4.99 -2.28 5.98 -5 7 C-5 6.34 -5 5.68 -5 5 C-4.01 5 -3.02 5 -2 5 C-1.7834375 4.0409375 -1.7834375 4.0409375 -1.5625 3.0625 C-1 1 -1 1 0 0 Z " fill="#8C9AA3" transform="translate(255,241)"/>
<path d="M0 0 C-1 1 -1 1 -3.28515625 1.09765625 C-4.65994141 1.08025391 -4.65994141 1.08025391 -6.0625 1.0625 C-6.98160156 1.05347656 -7.90070313 1.04445313 -8.84765625 1.03515625 C-9.55792969 1.02355469 -10.26820313 1.01195312 -11 1 C-6.72516585 -1.84988944 -4.41972556 -2.94648371 0 0 Z " fill="#828B96" transform="translate(176,277)"/>
<path d="M0 0 C1.1875 1.5625 1.1875 1.5625 2 4 C0.625 7.75 0.625 7.75 -1 11 C-1.33 11 -1.66 11 -2 11 C-1.125 3.375 -1.125 3.375 0 0 Z " fill="#8D9AA4" transform="translate(143,185)"/>
<path d="M0 0 C0.99 0.66 1.98 1.32 3 2 C1.35 3.65 -0.3 5.3 -2 7 C-2.125 4.625 -2.125 4.625 -2 2 C-1.34 1.34 -0.68 0.68 0 0 Z " fill="#B5DCD2" transform="translate(235,268)"/>
<path d="M0 0 C0.66 0.33 1.32 0.66 2 1 C1.25 3.4375 1.25 3.4375 0 6 C-2.125 6.8125 -2.125 6.8125 -4 7 C-3.34 5.35 -2.68 3.7 -2 2 C-1.34 2 -0.68 2 0 2 C0 1.34 0 0.68 0 0 Z " fill="#BFE0DA" transform="translate(240,261)"/>
</svg>
